<svg xmlns="http://www.w3.org/2000/svg" xmlns:xlink="http://www.w3.org/1999/xlink" width="64" zoomAndPan="magnify" viewBox="0 0 48 48" height="64" preserveAspectRatio="xMidYMid meet" version="1.2"><defs><clipPath id="62d3a7bb3b"><path d="M 0.488281 21 L 28 21 L 28 47 L 0.488281 47 Z M 0.488281 21 "/></clipPath></defs><g id="38e9af8e28"><path style=" stroke:none;fill-rule:nonzero;fill:#ffffff;fill-opacity:1;" d="M 20.089844 25.605469 L 20.089844 15.898438 C 20.089844 12.757812 17.351562 10.226562 13.953125 10.226562 C 10.550781 10.226562 7.820312 12.757812 7.820312 15.898438 L 7.820312 25.605469 C 7.820312 28.742188 10.550781 31.273438 13.953125 31.273438 C 17.351562 31.273438 20.089844 28.742188 20.089844 25.605469 Z M 20.089844 25.605469 "/><g clip-rule="nonzero" clip-path="url(#62d3a7bb3b)"><path style=" stroke:none;fill-rule:nonzero;fill:#ffffff;fill-opacity:1;" d="M 24.859375 21.988281 C 23.464844 22.011719 22.34375 23.164062 22.367188 24.558594 L 22.367188 25.519531 C 22.367188 30.121094 18.679688 33.777344 13.957031 33.777344 C 9.230469 33.777344 5.539062 30.121094 5.539062 25.519531 L 5.539062 24.558594 C 5.558594 23.132812 4.398438 21.972656 2.972656 21.992188 C 1.574219 22.011719 0.457031 23.164062 0.476562 24.558594 L 0.476562 25.519531 C 0.476562 32.042969 5.261719 37.472656 11.507812 38.613281 L 11.507812 42.605469 L 7.15625 42.605469 C 6.511719 42.605469 6 43.171875 6 43.867188 L 6 45.648438 C 6 46.34375 6.511719 46.910156 7.15625 46.910156 L 20.75 46.910156 C 21.390625 46.910156 21.910156 46.34375 21.910156 45.648438 L 21.910156 43.867188 C 21.910156 43.171875 21.390625 42.605469 20.75 42.605469 L 16.566406 42.605469 L 16.566406 38.589844 C 22.730469 37.378906 27.429688 31.988281 27.429688 25.519531 L 27.429688 24.558594 C 27.449219 23.128906 26.289062 21.96875 24.859375 21.988281 Z M 24.859375 21.988281 "/></g><path style=" stroke:none;fill-rule:nonzero;fill:#ffffff;fill-opacity:1;" d="M 27.902344 1.71875 L 40.664062 1.71875 C 42.699219 1.71875 44.257812 3.125 44.257812 5.058594 L 44.257812 14.003906 C 44.257812 15.9375 42.683594 17.398438 40.664062 17.398438 L 36.292969 17.398438 C 36.042969 17.398438 35.800781 17.507812 35.640625 17.695312 L 32.738281 21.074219 C 32.382812 21.507812 31.898438 21.382812 31.898438 20.859375 L 31.898438 18.261719 C 31.898438 17.78125 31.507812 17.394531 31.027344 17.398438 L 27.902344 17.398438 C 25.882812 17.398438 24.347656 15.941406 24.347656 14.003906 L 24.347656 5.058594 C 24.347656 3.117188 25.871094 1.71875 27.902344 1.71875 Z M 27.902344 -0.0078125 C 25.03125 -0.0078125 22.625 2.175781 22.625 5.058594 L 22.625 14.003906 C 22.625 16.882812 25.019531 19.121094 27.902344 19.121094 L 30.167969 19.121094 L 30.167969 21.738281 C 30.167969 22.632812 30.867188 23.351562 31.53125 23.507812 C 32.199219 23.667969 32.863281 23.582031 33.375 22.988281 L 36.691406 19.121094 L 40.664062 19.121094 C 43.550781 19.121094 45.980469 16.890625 45.980469 14.003906 L 45.980469 5.058594 C 45.980469 2.171875 43.539062 -0.0078125 40.664062 -0.0078125 Z M 27.902344 -0.0078125 "/><path style=" stroke:none;fill-rule:evenodd;fill:#ffffff;fill-opacity:1;" d="M 39.660156 5.160156 L 28.9375 5.160156 C 28.535156 5.160156 28.210938 5.484375 28.210938 5.890625 C 28.210938 6.292969 28.535156 6.617188 28.9375 6.617188 L 39.660156 6.617188 C 40.0625 6.617188 40.390625 6.292969 40.390625 5.890625 C 40.390625 5.484375 40.0625 5.160156 39.660156 5.160156 Z M 39.660156 5.160156 "/><path style=" stroke:none;fill-rule:evenodd;fill:#ffffff;fill-opacity:1;" d="M 39.660156 8.828125 L 28.9375 8.828125 C 28.535156 8.828125 28.210938 9.152344 28.210938 9.558594 C 28.210938 9.964844 28.535156 10.285156 28.9375 10.285156 L 39.660156 10.285156 C 40.0625 10.285156 40.390625 9.964844 40.390625 9.558594 C 40.390625 9.152344 40.0625 8.828125 39.660156 8.828125 Z M 39.660156 8.828125 "/><path style=" stroke:none;fill-rule:evenodd;fill:#ffffff;fill-opacity:1;" d="M 39.660156 12.5 L 33.253906 12.5 C 32.851562 12.5 32.527344 12.824219 32.527344 13.226562 C 32.527344 13.632812 32.851562 13.957031 33.253906 13.957031 L 39.660156 13.957031 C 40.0625 13.957031 40.390625 13.632812 40.390625 13.226562 C 40.390625 12.824219 40.0625 12.5 39.660156 12.5 Z M 39.660156 12.5 "/></g></svg>